<?xml version="1.0" encoding="UTF-8" standalone="no"?>
<!-- Created with Inkscape (http://www.inkscape.org/) -->

<svg
   xmlns:dc="http://purl.org/dc/elements/1.1/"
   xmlns:cc="http://creativecommons.org/ns#"
   xmlns:rdf="http://www.w3.org/1999/02/22-rdf-syntax-ns#"
   xmlns:svg="http://www.w3.org/2000/svg"
   xmlns="http://www.w3.org/2000/svg"
   xmlns:sodipodi="http://sodipodi.sourceforge.net/DTD/sodipodi-0.dtd"
   xmlns:inkscape="http://www.inkscape.org/namespaces/inkscape"
   version="1.1"
   id="svg10"
   xml:space="preserve"
   width="816"
   height="1056"
   viewBox="0 0 816 1056"
   sodipodi:docname="uv-hexagon.svg"
   inkscape:version="0.92.3 (2405546, 2018-03-11)"><metadata
     id="metadata16"><rdf:RDF><cc:Work
         rdf:about=""><dc:format>image/svg+xml</dc:format><dc:type
           rdf:resource="http://purl.org/dc/dcmitype/StillImage" /><dc:title></dc:title></cc:Work></rdf:RDF></metadata><defs
     id="defs14"><clipPath
       clipPathUnits="userSpaceOnUse"
       id="clipPath74"><path
         d="M 0,792 H 612 V 0 H 0 Z"
         id="path72"
         inkscape:connector-curvature="0" /></clipPath></defs><sodipodi:namedview
     pagecolor="#ffffff"
     bordercolor="#666666"
     borderopacity="1"
     objecttolerance="10"
     gridtolerance="10"
     guidetolerance="10"
     inkscape:pageopacity="0"
     inkscape:pageshadow="2"
     inkscape:window-width="1463"
     inkscape:window-height="760"
     id="namedview12"
     showgrid="false"
     inkscape:zoom="1.1100032"
     inkscape:cx="425.6054"
     inkscape:cy="585.87521"
     inkscape:window-x="-8"
     inkscape:window-y="-8"
     inkscape:window-maximized="1"
     inkscape:current-layer="g18" /><g
     id="g18"
     inkscape:groupmode="layer"
     inkscape:label="uv-hexagon"
     transform="matrix(1.3333333,0,0,-1.3333333,0,1056)"><g
       id="g20"
       transform="matrix(0.74855771,-0.43218,0.43218,0.74855771,368.10572,490.1558)"
       style="fill:#3e114e;fill-opacity:1"><path
         d="m 0,0 -36,62.354 -2.598,4.5 h -5.196 -72 -5.196 l -2.598,-4.5 -36,-62.354 -2.599,-4.5 2.599,-4.5 36,-62.354 2.598,-4.5 h 5.196 72 5.196 L -36,-71.354 0,-9 2.598,-4.5 Z"
         style="fill:#3e114e;fill-opacity:1;fill-rule:nonzero;stroke:none"
         id="path22"
         inkscape:connector-curvature="0" /></g><text
       transform="matrix(1,-1.6961651e-6,-1.6961651e-6,-1,0,0)"
       style="font-variant:normal;font-weight:normal;font-stretch:normal;font-size:54.15955734px;font-family:Edelsans;-inkscape-font-specification:Edelsans;writing-mode:lr-tb;fill:#ffffff;fill-opacity:1;fill-rule:nonzero;stroke:none"
       id="text30"
       x="267.00378"
       y="-496.95044"><tspan
         x="267.00378 307.56931"
         y="-496.95044"
         sodipodi:role="line"
         id="tspan28">UV</tspan></text>
<path
       style="fill:#3e114e;fill-opacity:1;stroke-width:0.90089834"
       d="m 367.63259,431.7848 -40.76565,-23.53814 0.0403,-47.39405 0.0403,-47.39404 40.3588,-23.19813 c 22.19735,-12.75898 40.79433,-23.19814 41.32662,-23.19814 0.5323,0 19.14312,10.49859 41.35738,23.33019 l 40.38957,23.3302 0.22137,47.1651 0.22138,47.1651 -40.63659,23.42336 c -22.35013,12.88285 -40.89564,23.51861 -41.21225,23.63502 -0.31661,0.11642 -18.9202,-10.38049 -41.34131,-23.32647 z m 24.09903,-39.20914 c 4.34717,-1.77156 7.98891,-5.39417 10.25222,-10.19837 1.75101,-3.71676 1.9345,-5.87159 2.2055,-25.90083 l 0.2956,-21.84678 h -3.67397 -3.67396 v 21.93878 c 0,21.24848 -0.0638,22.0351 -2.02832,24.99993 -2.91703,4.40238 -9.47706,7.46062 -14.26729,6.65132 -4.76589,-0.80519 -10.36472,-5.72934 -11.60936,-10.21039 -0.50255,-1.80932 -0.91599,-12.30991 -0.91875,-23.33465 l -0.005,-20.04499 h -3.15314 -3.15315 v 20.32173 c 0,11.83802 0.41521,21.97064 0.99458,24.27153 1.13693,4.51518 5.96262,10.61095 10.13185,12.79846 5.79002,3.03791 12.05092,3.22444 18.60322,0.55426 z m 55.7896,-28.0078 c 5.98228,-15.98887 10.87688,-29.29033 10.87688,-29.55881 0,-0.26847 -1.50932,-0.36231 -3.35402,-0.20853 l -3.35403,0.27961 -8.05607,21.48872 -8.05609,21.48872 -8.05257,-21.71394 -8.05256,-21.71395 h -3.48795 c -3.43519,0 -3.47354,0.0375 -2.53602,2.47747 0.52355,1.36261 4.72954,12.61258 9.34663,24.99993 4.61711,12.38735 9.28953,24.89134 10.38319,27.78664 1.09365,2.8953 2.32084,4.92232 2.72709,4.50449 0.40624,-0.41783 5.63323,-13.84149 11.61552,-29.83035 z"
       id="path5749"
       inkscape:connector-curvature="0"
       transform="matrix(0.75000002,0,0,-0.75000002,0,792.00002)" /></g></svg>